<svg width="14" height="14" viewBox="0 0 14 14" fill="none" xmlns="http://www.w3.org/2000/svg">
  <path fill-rule="evenodd" clip-rule="evenodd" d="M8.13664 7.57222L6.42756 5.86312L7.23323 5.05745L8.94231 6.76654L8.13664 7.57222Z" fill="#0043A5"/>
  <path fill-rule="evenodd" clip-rule="evenodd" d="M8.5511 2.95098L11.0486 5.44854L2.83092 13.6663L0.333374 11.1688L8.5511 2.95098ZM8.5511 4.56231L1.94469 11.1688L2.83092 12.055L9.43733 5.44854L8.5511 4.56231Z" fill="#0043A5"/>
  <path fill-rule="evenodd" clip-rule="evenodd" d="M9.10917 0.333008V2.0421H7.96978V0.333008H9.10917Z" fill="#0043A5"/>
  <path fill-rule="evenodd" clip-rule="evenodd" d="M12.5924 2.21301L11.331 3.47444L10.5253 2.66877L11.7867 1.40734L12.5924 2.21301Z" fill="#0043A5"/>
  <path fill-rule="evenodd" clip-rule="evenodd" d="M11.9576 4.89059H13.6667V6.02998H11.9576V4.89059Z" fill="#0043A5"/>
  <path fill-rule="evenodd" clip-rule="evenodd" d="M11.331 7.44613L12.5924 8.70756L11.7867 9.51324L10.5253 8.2518L11.331 7.44613Z" fill="#0043A5"/>
  <path fill-rule="evenodd" clip-rule="evenodd" d="M5.29223 1.40734L6.55365 2.66877L5.74798 3.47444L4.48656 2.21301L5.29223 1.40734Z" fill="#0043A5"/>
</svg>
