<?xml version="1.0" encoding="UTF-8" standalone="no"?>
<!DOCTYPE svg PUBLIC "-//W3C//DTD SVG 1.1//EN" "http://www.w3.org/Graphics/SVG/1.1/DTD/svg11.dtd">
<svg xmlns:dc="http://purl.org/dc/elements/1.1/" version="1.1" xmlns="http://www.w3.org/2000/svg" xmlns:xl="http://www.w3.org/1999/xlink" viewBox="570.5 412.76775 172.7421 36.943704" width="172.7421" height="36.943704">
  <defs/>
  <metadata> Produced by OmniGraffle 7.12.1 
    <dc:date>2020-09-21 07:50:28 +0000</dc:date>
  </metadata>
  <g id="Canvas_1" stroke="none" stroke-opacity="1" fill-opacity="1" stroke-dasharray="none" fill="none">
    <title>Canvas 1</title>
    <g id="Canvas_1: Layer 1">
      <title>Layer 1</title>
      <g id="Group_67">
        <g id="Graphic_65">
          <path d="M 625.1652 421.3493 L 630.8482 421.3493 L 622.0192 427.9693 L 629.8232 435.0843 L 623.6212 435.0843 L 616.8502 427.9693 Z M 617.8282 421.3493 L 615.7982 435.0843 L 611.5162 435.0843 L 613.5462 421.3493 Z" fill="white"/>
        </g>
        <g id="Graphic_64">
          <path d="M 635.8615 429.9655 L 635.1045 435.0845 L 630.8225 435.0845 L 632.8525 421.3495 L 637.1345 421.3495 L 636.4035 426.2975 L 645.5575 426.2975 L 646.2895 421.3495 L 650.5725 421.3495 L 648.5425 435.0845 L 644.2585 435.0845 L 645.0155 429.9655 Z" fill="white"/>
        </g>
        <g id="Graphic_63">
          <path d="M 659.9606 418.1413 L 663.0156 418.1413 C 663.2026 418.1413 663.3366 418.1473 663.4186 418.1583 C 663.4986 418.1693 663.5496 418.1813 663.5696 418.1933 C 663.5906 418.2043 663.6056 418.2323 663.6126 418.2783 C 663.6216 418.3233 663.6156 418.4033 663.5996 418.5163 C 663.5736 418.6873 663.5026 418.8023 663.3866 418.8623 C 663.2696 418.9223 663.0196 418.9803 662.6346 419.0373 C 662.5536 419.0483 662.4576 419.0653 662.3456 419.0883 C 661.9276 419.1513 661.6026 419.2273 661.3736 419.3183 C 661.1446 419.4103 660.9566 419.5823 660.8106 419.8383 C 660.7546 419.9413 660.7116 420.0623 660.6796 420.2013 C 660.6476 420.3413 660.6066 420.5863 660.5536 420.9393 L 662.5246 420.9393 C 662.5476 420.7863 662.5596 420.7063 662.5596 420.7013 C 662.5636 420.6783 662.5956 420.6463 662.6546 420.6073 C 662.7146 420.5673 662.8486 420.5413 663.0546 420.5303 L 663.0716 420.5303 C 663.2786 420.5133 663.4706 420.4933 663.6476 420.4703 C 663.8246 420.4483 664.0216 420.4063 664.2366 420.3463 C 664.4536 420.2873 664.6596 420.1923 664.8556 420.0613 C 665.0506 419.9293 665.1856 419.7703 665.2596 419.5823 C 665.3466 419.4533 665.4146 419.2953 665.4646 419.1143 C 665.5146 418.9323 665.5576 418.7153 665.5946 418.4653 C 665.6406 418.1533 665.6456 417.8823 665.6076 417.6553 C 665.5696 417.4273 665.4656 417.2323 665.2936 417.0703 C 665.1216 416.9093 664.8746 416.7883 664.5526 416.7113 C 664.2316 416.6353 663.8236 416.5973 663.3286 416.5973 L 660.1886 416.5973 Z M 657.9406 429.7873 L 663.2476 429.7873 L 661.3236 424.8473 Z M 655.9506 432.7463 L 654.3256 435.0843 L 649.5736 435.0843 L 659.1366 421.3493 L 664.6226 421.3493 L 670.0486 435.0843 L 665.2966 435.0843 L 664.3876 432.7463 Z" fill="white"/>
        </g>
        <g id="Graphic_62">
          <path d="M 675.5837 430.9978 C 675.5407 431.2878 675.5987 431.4888 675.7557 431.6008 C 675.9127 431.7098 676.2347 431.7668 676.7247 431.7668 L 684.4967 431.7668 C 684.9517 431.7668 685.2977 431.6938 685.5357 431.5488 C 685.7727 431.4028 685.9087 431.2208 685.9407 430.9978 L 686.1747 429.4198 L 686.7627 425.4438 C 686.8117 425.1148 686.7547 424.8908 686.5927 424.7748 C 686.4307 424.6578 686.1047 424.5998 685.6157 424.5998 L 677.7837 424.5998 C 677.3287 424.5998 676.9947 424.6758 676.7817 424.8258 C 676.5697 424.9768 676.4427 425.1828 676.4047 425.4438 Z M 672.6287 424.8478 C 672.7107 424.2898 672.8427 423.8278 673.0247 423.4608 C 673.2077 423.0938 673.4957 422.7508 673.8897 422.4338 C 674.2407 422.1318 674.6147 421.8998 675.0127 421.7368 C 675.4077 421.5748 675.8937 421.4588 676.4667 421.3878 C 677.0407 421.3158 677.7257 421.2728 678.5217 421.2558 C 679.3167 421.2378 680.5427 421.2288 682.1977 421.2288 C 683.8537 421.2288 685.0737 421.2378 685.8627 421.2558 C 686.6497 421.2728 687.3167 421.3158 687.8607 421.3878 C 688.4047 421.4588 688.8477 421.5748 689.1907 421.7368 C 689.5337 421.8998 689.8337 422.1318 690.0907 422.4338 C 690.3907 422.7508 690.5767 423.0938 690.6507 423.4608 C 690.7247 423.8278 690.7207 424.2898 690.6387 424.8478 L 690.3447 426.8348 C 690.0767 428.6438 689.8457 430.2108 689.6497 431.5348 C 689.5667 432.0988 689.4327 432.5718 689.2477 432.9568 C 689.0627 433.3398 688.7737 433.6878 688.3817 434.0008 C 688.0367 434.2918 687.6637 434.5158 687.2627 434.6748 C 686.8597 434.8348 686.3707 434.9508 685.7937 435.0248 C 685.2177 435.0998 684.5137 435.1468 683.6827 435.1698 C 682.8517 435.1928 681.6507 435.2048 680.0817 435.2048 C 678.5067 435.2048 677.3117 435.1928 676.4987 435.1698 C 675.6867 435.1468 675.0007 435.0998 674.4427 435.0248 C 673.8857 434.9508 673.4377 434.8348 673.0997 434.6748 C 672.7627 434.5158 672.4557 434.2918 672.1807 434.0008 C 671.8787 433.6878 671.6927 433.3398 671.6217 432.9568 C 671.5507 432.5718 671.5567 432.0988 671.6407 431.5348 Z" fill="white"/>
        </g>
        <g id="Graphic_61">
          <path d="M 709.5231 435.0847 L 705.2501 435.0847 L 706.8091 424.5307 L 700.7771 424.5307 L 701.2481 421.3497 L 717.3881 421.3497 L 716.9191 424.5307 L 711.0831 424.5307 Z" fill="white"/>
        </g>
        <g id="Graphic_60">
          <path d="M 721.7458 429.9655 L 720.9898 435.0845 L 716.7078 435.0845 L 718.7378 421.3495 L 723.0188 421.3495 L 722.2888 426.2975 L 731.4428 426.2975 L 732.1738 421.3495 L 736.4568 421.3495 L 734.4278 435.0845 L 730.1438 435.0845 L 730.8998 429.9655 Z" fill="white"/>
        </g>
        <g id="Graphic_59">
          <path d="M 737.9801 419.1823 L 742.6801 417.3993 L 743.2421 419.2593 L 738.4821 420.8123 Z M 742.2851 421.3493 L 740.2541 435.0843 L 735.9711 435.0843 L 738.0011 421.3493 Z" fill="white"/>
        </g>
        <g id="Graphic_58">
          <path d="M 644.3278 440.5915 L 643.6838 439.8295 L 638.3888 439.8295 L 637.8288 443.6165 L 643.8808 443.6165 Z M 646.7098 439.8295 L 645.9288 445.1195 C 645.8578 445.5935 645.5668 445.8475 645.0538 445.8815 L 635.9928 445.8815 C 635.4898 445.8475 635.2728 445.5935 635.3438 445.1195 L 636.3648 438.2105 C 636.4238 437.8085 636.7098 437.5935 637.2218 437.5665 L 644.7748 437.5665 Z" fill="#37c0cd"/>
        </g>
        <g id="Graphic_57">
          <path d="M 661.7736 439.8298 L 660.8786 445.8818 L 658.6096 445.8818 L 659.3916 440.5918 L 658.7476 439.8298 L 653.4526 439.8298 L 652.5576 445.8818 L 650.2946 445.8818 L 651.4276 438.2108 C 651.4876 437.8088 651.7736 437.5938 652.2846 437.5658 L 659.8386 437.5658 Z" fill="#37c0cd"/>
        </g>
        <g id="Graphic_56">
          <path d="M 667.9552 443.6169 L 676.2762 443.6169 L 675.9412 445.8819 L 666.1182 445.8819 C 665.6162 445.8469 665.3992 445.5939 665.4692 445.1199 L 666.5852 437.5659 L 668.8492 437.5659 Z" fill="#37c0cd"/>
        </g>
        <g id="Graphic_55">
          <path d="M 682.6842 445.8815 L 680.4202 445.8815 L 681.6492 437.5665 L 683.9132 437.5665 Z" fill="#37c0cd"/>
        </g>
        <g id="Graphic_54">
          <path d="M 698.7184 439.8298 L 697.8244 445.8818 L 695.5554 445.8818 L 696.3364 440.5918 L 695.6934 439.8298 L 690.3984 439.8298 L 689.5034 445.8818 L 687.2394 445.8818 L 688.3724 438.2108 C 688.4334 437.8088 688.7184 437.5938 689.2304 437.5658 L 696.7834 437.5658 Z" fill="#37c0cd"/>
        </g>
        <g id="Graphic_53">
          <path d="M 714.1169 437.5661 L 713.7829 439.8301 L 705.4609 439.8301 L 705.3479 440.5911 L 713.6699 440.5911 L 713.3359 442.8551 L 705.0129 442.8551 L 704.9009 443.6171 L 713.2219 443.6171 L 712.8879 445.8811 L 703.0649 445.8811 C 702.5619 445.8471 702.3459 445.5931 702.4159 445.1201 L 703.4369 438.2111 C 703.4959 437.8081 703.7819 437.5931 704.2939 437.5661 Z" fill="#37c0cd"/>
        </g>
      </g>
      <g id="Group_68">
        <g id="Graphic_52">
          <path d="M 603.642 445.67075 C 603.597 447.78075 601.896 449.56375 599.789 449.69275 C 599.086 449.73675 598.419 449.60775 597.826 449.33675 L 596.685 448.56475 L 586.738 441.82675 L 594.207 432.57375 L 602.55 442.79275 L 602.858 443.17275 C 603.367 443.86775 603.658 444.73275 603.642 445.67075 Z" fill="white"/>
        </g>
        <g id="Graphic_51">
          <path d="M 587.5463 424.42075 L 583.4713 427.90075 C 582.0563 429.10975 580.2983 429.72875 578.5243 429.72875 C 577.1863 429.72875 575.8433 429.37675 574.6353 428.65675 C 573.0103 427.69475 571.6723 426.31275 570.7543 424.65975 L 570.5003 424.19475 L 570.5003 417.76375 C 570.5003 415.00275 572.7393 412.76775 575.5003 412.76775 C 576.3003 412.76775 577.0803 412.94475 577.7843 413.28075 C 578.4913 413.61575 579.1263 414.10875 579.6313 414.72775 Z" fill="white"/>
        </g>
        <g id="Graphic_50">
          <path d="M 603.1 421.55505 L 602.3 422.54905 L 594.207 432.57405 L 586.738 441.82605 L 581.778 447.97105 C 580.027 450.13805 576.786 450.30705 574.821 448.33405 L 571.607 445.10505 C 570.9 444.39305 570.5 443.42705 570.5 442.42505 L 570.5 424.19505 L 570.755 424.65905 C 571.672 426.31305 573.01 427.69505 574.635 428.65705 C 575.844 429.37705 577.186 429.72805 578.524 429.72805 C 580.298 429.72805 582.057 429.11005 583.472 427.90105 L 587.546 424.42105 L 596.722 416.57905 L 597.102 416.25605 C 597.11 416.25205 597.118 416.24305 597.121 416.24305 C 597.983 415.60105 599.098 415.28505 600.29 415.49205 C 601.993 415.78705 603.351 417.18505 603.601 418.89505 C 603.743 419.87305 603.545 420.79105 603.1 421.55505 Z" fill="#37c0cd"/>
        </g>
      </g>
    </g>
  </g>
</svg>
