<?xml version="1.0" encoding="UTF-8" standalone="no"?>
<!DOCTYPE svg PUBLIC "-//W3C//DTD SVG 1.1//EN" "http://www.w3.org/Graphics/SVG/1.1/DTD/svg11.dtd">
<svg xmlns:dc="http://purl.org/dc/elements/1.1/" version="1.1" xmlns="http://www.w3.org/2000/svg" xmlns:xl="http://www.w3.org/1999/xlink" viewBox="408.7516 182.7396 33.146365 36.943704" width="33.146365" height="36.943704">
  <defs/>
  <metadata> Produced by OmniGraffle 7.12.1 
    <dc:date>2020-09-21 07:49:27 +0000</dc:date>
  </metadata>
  <g id="Canvas_2" stroke="none" stroke-opacity="1" fill-opacity="1" stroke-dasharray="none" fill="none">
    <title>Canvas 2</title>
    <g id="Canvas_2: Layer 1">
      <title>Layer 1</title>
      <g id="Graphic_85">
        <path d="M 441.8936 215.6426 C 441.8486 217.7526 440.1476 219.5356 438.0406 219.6646 C 437.3376 219.7086 436.6706 219.5796 436.0776 219.3086 L 434.9366 218.5366 L 424.9896 211.7986 L 432.4586 202.5456 L 440.8016 212.7646 L 441.1096 213.1446 C 441.6186 213.8396 441.9096 214.7046 441.8936 215.6426 Z" fill="white"/>
      </g>
      <g id="Graphic_86">
        <path d="M 425.7979 194.3926 L 421.7229 197.8726 C 420.3079 199.0816 418.5499 199.7006 416.7759 199.7006 C 415.4379 199.7006 414.0949 199.3486 412.8869 198.6286 C 411.2619 197.6666 409.9239 196.2846 409.0059 194.6316 L 408.7519 194.1666 L 408.7519 187.7356 C 408.7519 184.9746 410.9909 182.7396 413.7519 182.7396 C 414.5519 182.7396 415.3319 182.9166 416.0359 183.2526 C 416.7429 183.5876 417.3779 184.0806 417.8829 184.6996 Z" fill="white"/>
      </g>
      <g id="Graphic_87">
        <path d="M 441.3516 191.5269 L 440.5516 192.5209 L 432.4586 202.5459 L 424.9896 211.7979 L 420.0296 217.9429 C 418.2786 220.1099 415.0376 220.2789 413.0726 218.3059 L 409.8586 215.0769 C 409.1516 214.3649 408.7516 213.3989 408.7516 212.3969 L 408.7516 194.1669 L 409.0066 194.6309 C 409.9236 196.2849 411.2616 197.6669 412.8866 198.6289 C 414.0956 199.3489 415.4376 199.6999 416.7756 199.6999 C 418.5496 199.6999 420.3086 199.0819 421.7236 197.8729 L 425.7976 194.3929 L 434.9736 186.5509 L 435.3536 186.2279 C 435.3616 186.2239 435.3696 186.2149 435.3726 186.2149 C 436.2346 185.5729 437.3496 185.2569 438.5416 185.4639 C 440.2446 185.7589 441.6026 187.1569 441.8526 188.8669 C 441.9946 189.8449 441.7966 190.7629 441.3516 191.5269 Z" fill="#37c0cd"/>
      </g>
    </g>
  </g>
</svg>
